<?xml version="1.0" encoding="UTF-8"?>
<svg id="Capa_1" data-name="Capa 1" xmlns="http://www.w3.org/2000/svg" viewBox="0 0 1076 992">
  <defs>
    <style>
      .cls-1 {
        fill: #3b6b76;
      }

      .cls-2 {
        fill: #26586e;
      }

      .cls-3 {
        fill: #3b6b77;
      }

      .cls-4 {
        fill: #b781a7;
      }

      .cls-5 {
        fill: #ec7975;
      }

      .cls-6 {
        fill: #9a7bad;
      }

      .cls-7 {
        fill: #9b7bad;
      }

      .cls-8 {
        fill: #c8b569;
      }

      .cls-9 {
        fill: #daa4ab;
      }

      .cls-10 {
        fill: #cea85d;
      }

      .cls-11 {
        fill: #b991c0;
      }

      .cls-12 {
        fill: #e97876;
      }
    </style>
  </defs>
  <path class="cls-1" d="M369.18,472.1c-10.13,2.85-24.38,1.73-34.53,3.86-83.5,17.57-100.9,78.42-82.21,155.88-4,4.26-18.98-17.13-20.95-20.49-26.3-44.71-26.83-113.1,8.62-153.15,25.86-29.22,43.75-19.31,69.81-34.63,44.02-25.87,11.72-67.77,34.7-97.4,61.32-79.06,177.36,21.76,142.87,102.96-12.52,29.47-51.97,40.65-81.45,39.89-3.79-4.33-4.08-10.24-.87-17.74-12.17,3.91-22.86,11.72-32.05,23.41l-3.94-2.59Z"/>
  <path class="cls-7" d="M750.05,714.81c-7.56,7.68-13.71,5.64-18.43-6.14-24.05,2.62-62.87-3.79-79.86-21.51-25.97,13.41-59.11-33.22-55.29-58.37,22.71-95.13,219.82-48.63,250.46-162.7,6.22-23.14.64-31.26-1.66-52.36-3.83-5.95-4.55-13.35,3.07-9.22,51.74,49,46.19,138.79-17.42,174.59-26.01,14.63-54.76,16.15-59.45,54.21-5.64,45.87,19.29,42.38-21.42,81.5Z"/>
  <path class="cls-2" d="M332.32,309.27c-4.65,3.25-5.67,1.2-3.07-6.14,20.9-48.25,67.15-79.23,121.01-73.39,40.65,4.4,57.98,50.03,105.39,21.8,17.78-10.59,15.13-23.65,41.93-21.83,114.65,7.79,69.84,192.77-22.05,169.62-58.26-14.68-82.42-98.6-143.25-117.85-35.49-11.23-76.25-1.34-99.96,27.79Z"/>
  <path class="cls-10" d="M605.7,210.91c-4.45-4.38.29-5.57,4.55-6.11,44.44-5.62,94.81,19.03,117.76,57.4,22.76,38.05,3.06,73.67,19.5,100.32,21.71,35.19,63.93,14.08,77.97,60.26,27.5,90.44-118.4,131.54-154.82,68.84-43.16-74.3,78.34-207.08-30.52-267.49-6.36-3.53-33.12-11.92-34.43-13.22Z"/>
  <path class="cls-5" d="M771.55,733.24c13.12-17.29,18.24-19.34,15.36-6.14-21.96,67.43-91.51,111.77-162.12,89.96-45.04-13.92-43.93-59.82-98.04-29.12-17.42,9.88-14.44,19.72-41.67,15.23-79.92-13.16-39.2-155.77,26.16-152.13,51.54,2.87,94.31,94.88,155.86,111.41,46.55,12.5,70.37-1.36,104.45-29.2Z"/>
  <path class="cls-2" d="M558.58,159.76c47.4,47.42-32.57,118.61-72.7,61.96-34.76-49.06,33.11-101.57,72.7-61.96Z"/>
  <path class="cls-6" d="M832.34,598.72c62.5-6.27,68.54,90.18,8.25,94.65-63.97,4.75-72.25-88.23-8.25-94.65Z"/>
  <path class="cls-3" d="M306.68,403.44c-38.94,42.36-108.44-13.85-72.67-61.94,39.76-53.45,117.64,13.01,72.67,61.94Z"/>
  <path class="cls-10" d="M766.48,357.36c-2.91-3.15-8.76-12.53-9.64-16.48-14.49-65.09,73.65-88.72,90.05-25.57,5.14,19.8-6.91,50.33-28.43,54.71-18.29,3.72-38.93,1.48-51.98-12.65Z"/>
  <path class="cls-11" d="M285.58,663.32c72.46-8.74,75.6,103.77-3.75,91.22-47.17-7.46-43.93-85.47,3.75-91.22Z"/>
  <path class="cls-4" d="M651.76,687.16c7.64,9.09,18.92,14.78,33.84,17.07,12.35,3.4,46.95,10.64,46.02,4.43,6.66,1.89,11.32,6.6,18.43,6.14-3.54,3.4-5.8,8.56-10.75,12.28-60.97,45.92-159.74-27.46-142.82-98.31-4.45,10.89,30.83,51.11,36.9,53.71,5.23,2.25,11.02,1.79,18.39,4.66Z"/>
  <path class="cls-12" d="M549.61,795.34c48.84-9.49,60.31,69.31,14.4,75.97-53.27,7.73-58.28-67.44-14.4-75.97Z"/>
  <path class="cls-9" d="M771.55,733.24l16.94-27.62c10.75-5.37-.93,19.5-1.58,21.48l-1.52-6.13c-3.92,4.99-9.04,8.35-13.84,12.27Z"/>
  <path class="cls-11" d="M496.09,827.19c5.81,2.63,4.22,4.77-4.76,6.44-61.07,7.27-117.52-19.64-139.79-74.76-16.8-41.6,21.44-84.15-32.78-113.74-20.33-11.1-32.5-1.14-44.7-27.95-52.18-114.7,163.35-176.53,187.63-75.01,15.4,64.37-59,135.21-47,204.63,7.01,40.5,38.7,74.1,81.39,80.39Z"/>
  <path class="cls-8" d="M421,443.4s-59.32,31.07-4.71,134.65c0,0-42.37-8.47-49.9-67.32-7.53-58.85,54.61-67.32,54.61-67.32Z"/>
</svg>